<svg xmlns="http://www.w3.org/2000/svg" width="21.608" height="25.858" viewBox="0 0 21.608 25.858">
  <g id="Group_109" data-name="Group 109" transform="translate(-1717 -27.811)">
    <g id="Group_144" data-name="Group 144">
      <path id="Icon_material-notifications" data-name="Icon material-notifications" d="M16.608,29.608a2.66,2.66,0,0,0,2.652-2.652h-5.3A2.651,2.651,0,0,0,16.608,29.608Zm7.956-7.956v-6.63c0-4.071-2.175-7.479-5.967-8.381v-.9a1.989,1.989,0,1,0-3.978,0v.9c-3.806.9-5.967,4.3-5.967,8.381v6.63L6,24.3V25.63H27.217V24.3Z" transform="translate(1711 24.061)" fill="#3250fe"/>
    </g>
    <g id="Ellipse_37" data-name="Ellipse 37" transform="translate(1729.608 28.74)" fill="#e30404" stroke="#fff" stroke-width="1">
      <circle cx="4.5" cy="4.5" r="4.5" stroke="none"/>
      <circle cx="4.5" cy="4.5" r="4" fill="none"/>
    </g>
  </g>
</svg>
