<svg xmlns="http://www.w3.org/2000/svg" width="15.561" height="17.745" viewBox="0 0 15.561 17.745">
  <path id="Icon_awesome-calendar" data-name="Icon awesome-calendar" d="M.417,6.654H15.144a.418.418,0,0,1,.417.416v9.011a1.666,1.666,0,0,1-1.667,1.664H1.667A1.666,1.666,0,0,1,0,16.081V7.07A.418.418,0,0,1,.417,6.654ZM15.561,5.129V3.882a1.666,1.666,0,0,0-1.667-1.664H12.226V.416A.418.418,0,0,0,11.809,0H10.42A.418.418,0,0,0,10,.416v1.8H5.557V.416A.418.418,0,0,0,5.141,0H3.751a.418.418,0,0,0-.417.416v1.8H1.667A1.666,1.666,0,0,0,0,3.882V5.129a.418.418,0,0,0,.417.416H15.144A.418.418,0,0,0,15.561,5.129Z" fill="#858585"/>
</svg>
