<svg xmlns="http://www.w3.org/2000/svg" width="20.227" height="13.145" viewBox="0 0 20.227 13.145">
  <g id="Icon_ionic-ios-people" data-name="Icon ionic-ios-people" transform="translate(-2.215 -7.748)">
    <path id="Path_173" data-name="Path 173" d="M18.67,17.862c-.5-.18-1.329-.189-1.694-.329a2.393,2.393,0,0,1-.784-.365,4.844,4.844,0,0,1-.131-1.284,2.074,2.074,0,0,0,.446-.631,7.009,7.009,0,0,0,.216-1.239s.3.126.414-.469c.1-.514.288-.784.239-1.162s-.261-.288-.261-.288a3.373,3.373,0,0,0,.261-1.685,2.7,2.7,0,0,0-2.91-2.662,2.705,2.705,0,0,0-2.915,2.662,3.423,3.423,0,0,0,.257,1.685s-.212-.09-.261.288.135.649.239,1.162c.117.6.414.469.414.469a7.077,7.077,0,0,0,.216,1.239,2.074,2.074,0,0,0,.446.631,4.843,4.843,0,0,1-.131,1.284,2.3,2.3,0,0,1-.784.36c-.36.14-1.185.158-1.694.338a3.179,3.179,0,0,0-2.063,3.027H20.728A3.173,3.173,0,0,0,18.67,17.862Z" transform="translate(-2.147)" fill="#858585"/>
    <path id="Path_174" data-name="Path 174" d="M7.1,16.911a3.058,3.058,0,0,0,1.5-.419c-.7-1.059-.32-2.293-.464-3.446a1.9,1.9,0,0,0-2.1-1.838H6.021a1.906,1.906,0,0,0-2.086,1.838c-.144,1.149.257,2.523-.459,3.446a2.83,2.83,0,0,0,1.509.374h0a2.281,2.281,0,0,1-.045.757,1.137,1.137,0,0,1-.541.248,10.452,10.452,0,0,0-1.167.324,1.9,1.9,0,0,0-1.018,1.676H5.832a3.236,3.236,0,0,1,1.442-1.342,3.025,3.025,0,0,1,1.113-.234s.171-.27-.392-.374a3.84,3.84,0,0,1-.865-.3C7.044,17.519,7.1,16.911,7.1,16.911Z" transform="translate(0 -1.243)" fill="#858585"/>
    <path id="Path_175" data-name="Path 175" d="M25.312,16.911a3.058,3.058,0,0,1-1.5-.419c.7-1.059.32-2.293.464-3.446a1.9,1.9,0,0,1,2.1-1.838h.018a1.906,1.906,0,0,1,2.086,1.838c.144,1.149-.257,2.523.459,3.446a2.83,2.83,0,0,1-1.509.374h0a2.281,2.281,0,0,0,.045.757,1.137,1.137,0,0,0,.541.248,10.452,10.452,0,0,1,1.167.324A1.9,1.9,0,0,1,30.2,19.871H26.583a3.236,3.236,0,0,0-1.442-1.342,3.025,3.025,0,0,0-1.113-.234s-.171-.27.392-.374a3.84,3.84,0,0,0,.865-.3C25.371,17.519,25.312,16.911,25.312,16.911Z" transform="translate(-7.759 -1.243)" fill="#858585"/>
  </g>
</svg>
