<svg width="17" height="14" viewBox="0 0 17 14" fill="none" xmlns="http://www.w3.org/2000/svg">
<path d="M0.678637 6.32366C0.679045 6.32345 0.679251 6.32304 0.679659 6.32284L6.72196 0.280337C7.09574 -0.0934455 7.70173 -0.0934455 8.07551 0.280337C8.44929 0.654119 8.44929 1.26011 8.07551 1.63389L3.66644 6.04296H16.0129C16.5416 6.04296 16.97 6.47137 16.97 7.00003C16.97 7.52868 16.5416 7.95709 16.0129 7.95709H3.66644L8.07551 12.3662C8.44929 12.7399 8.44929 13.3459 8.07551 13.7197C7.88872 13.9065 7.64363 14 7.39874 14C7.15384 14 6.90875 13.9065 6.72196 13.7197L0.679455 7.67721C0.679047 7.67701 0.678841 7.6766 0.678431 7.67639L0.00226784 7.00003L0.678637 6.32366Z" fill="#ACABAB"/>
</svg>
