<svg xmlns="http://www.w3.org/2000/svg" xmlns:xlink="http://www.w3.org/1999/xlink" width="176.095" height="64.626" viewBox="0 0 176.095 64.626">
  <defs>
    <filter id="Path_14653-3" x="0" y="0" width="66.968" height="64.626" filterUnits="userSpaceOnUse">
      <feOffset dy="3" input="SourceAlpha"/>
      <feGaussianBlur stdDeviation="3" result="blur"/>
      <feFlood flood-opacity="0.161"/>
      <feComposite operator="in" in2="blur"/>
      <feComposite in="SourceGraphic"/>
    </filter>
  </defs>
  <g id="Group_61" data-name="Group 61" transform="translate(-174.471 -23.68)">
    <g id="Group_32929" data-name="Group 32929" transform="translate(183.471 29.68)">
      <g transform="matrix(1, 0, 0, 1, -9, -6)" filter="url(#Path_14653-3)">
        <path id="Path_14653-3-2" data-name="Path 14653-3" d="M26.551.537l16.762,9.673c.947.537,2.1,1.177,3.48,2a4.278,4.278,0,0,1,1.638,1.407,3.4,3.4,0,0,1,.537,1.612,5.387,5.387,0,0,1-.512,2.15c-1.638,4.811-3.3,9.648-4.939,14.459-.333.87-.614,1.587-.819,2.1a11.306,11.306,0,0,1-1.561,3.2,5.924,5.924,0,0,1-1.331,1.075c-4.76,3.02-8.394,5.093-13.256,7.882a3.928,3.928,0,0,1-3.967,0L8.765,37.823c-1.024-.844-.921-.793-1.484-2.2Q3.749,25.719.192,15.764A2.861,2.861,0,0,1,.218,13.64a2.738,2.738,0,0,1,1-1.152L22.584.537a3.928,3.928,0,0,1,3.967,0Z" transform="translate(9 6)" fill="#3250fe"/>
      </g>
      <path id="Path_14654-3" data-name="Path 14654-3" d="M69.117,120.489c-1.305.717-2.61,1.459-3.89,2.2a2.3,2.3,0,0,1-2.482.077c-1.331-.768-2.687-1.51-4.018-2.252-1.612-.921-3.224-1.868-4.837-2.789a2.667,2.667,0,0,1-.9-.614.9.9,0,0,1,.512-1.152c3.1-1.74,6.193-3.506,9.315-5.272a2.15,2.15,0,0,1,2.278.026c3.122,1.766,6.219,3.532,9.341,5.3a.527.527,0,0,1,.2.154.842.842,0,0,1,.307.512.768.768,0,0,1-.077.333c-.026.077-.077.128-.2.256a1.39,1.39,0,0,1-.384.281C73.825,117.776,70.115,119.951,69.117,120.489Z" transform="translate(-39.393 -82.128)" fill="#fff" opacity="0.4"/>
      <path id="Path_14655-3" data-name="Path 14655-3" d="M60.888,84.982c-1.715.947-3.429,1.894-5.118,2.892a3.087,3.087,0,0,1-3.276.077c-1.766-1-3.532-1.97-5.3-2.969-2.124-1.228-4.248-2.431-6.372-3.659a3.674,3.674,0,0,1-1.177-.793,1.193,1.193,0,0,1,.665-1.51q6.142-3.455,12.232-6.909a2.866,2.866,0,0,1,2.994.026q6.142,3.493,12.284,6.961a1.167,1.167,0,0,1,.281.2,1.118,1.118,0,0,1,.384.691,1.064,1.064,0,0,1-.1.435.954.954,0,0,1-.282.333,3,3,0,0,1-.512.384C67.081,81.425,62.206,84.265,60.888,84.982Z" transform="translate(-29.45 -53.352)" fill="#fff" opacity="0.7"/>
      <path id="Path_14656-3" data-name="Path 14656-3" d="M49.22,38.394c-2.278,1.254-4.53,2.508-6.782,3.787a4.061,4.061,0,0,1-4.325.1c-2.329-1.331-4.683-2.61-7.012-3.89-2.815-1.612-5.63-3.2-8.445-4.811A4.932,4.932,0,0,1,21.1,32.533a1.571,1.571,0,0,1,.9-2q8.1-4.53,16.2-9.11a3.8,3.8,0,0,1,3.992.051q8.138,4.606,16.3,9.136a3.952,3.952,0,0,1,.358.256,1.331,1.331,0,0,1,.512.9.888.888,0,0,1-.128.563,1.469,1.469,0,0,1-.358.435,3.662,3.662,0,0,1-.691.512C57.434,33.711,50.947,37.447,49.22,38.394Z" transform="translate(-15.632 -15.541)" fill="#fff"/>
    </g>
    <g id="Group_32928" data-name="Group 32928" transform="translate(246.164 37.101)">
      <path id="Path_14657-4" data-name="Path 14657-4" d="M256.05,71.193a10.95,10.95,0,0,1-5.63-1.464,10.8,10.8,0,0,1-3.967-3.987A11.127,11.127,0,0,1,245,60.053a11.81,11.81,0,0,1,1.341-5.668A10.41,10.41,0,0,1,250,50.418a9.663,9.663,0,0,1,5.249-1.461,9.847,9.847,0,0,1,7.731,3.647V41.787a1.973,1.973,0,0,1,.581-1.484,2.047,2.047,0,0,1,3.506,1.484V60.053a11.13,11.13,0,0,1-1.464,5.689,10.774,10.774,0,0,1-9.553,5.451Zm0-3.606A6.851,6.851,0,0,0,259.7,66.6a6.935,6.935,0,0,0,2.523-2.7,8.013,8.013,0,0,0,.921-3.839,7.859,7.859,0,0,0-.921-3.839,7.009,7.009,0,0,0-2.523-2.664,7.219,7.219,0,0,0-7.273,0,7.091,7.091,0,0,0-2.559,2.664,7.721,7.721,0,0,0-.942,3.839,7.839,7.839,0,0,0,.942,3.839,7.014,7.014,0,0,0,2.559,2.7A6.879,6.879,0,0,0,256.05,67.587Z" transform="translate(-244.993 -39.668)" fill="#fff" stroke="#fff" stroke-miterlimit="10" stroke-width="1"/>
      <path id="Path_14658-4" data-name="Path 14658-4" d="M375.313,87.932a1.676,1.676,0,0,0,.512-1.262,12.613,12.613,0,0,0-1.182-5.589,9.005,9.005,0,0,0-3.416-3.805,10.042,10.042,0,0,0-5.374-1.382,10.971,10.971,0,0,0-5.609,1.423,10.108,10.108,0,0,0-3.818,3.926,11.772,11.772,0,0,0-1.382,5.789,11.173,11.173,0,0,0,1.461,5.75,10.41,10.41,0,0,0,4.046,3.926,12.284,12.284,0,0,0,9.776.742,11,11,0,0,0,3.386-1.763,1.415,1.415,0,0,0,.64-1.241,1.891,1.891,0,0,0-.719-1.323,1.766,1.766,0,0,0-1.223-.42,2.288,2.288,0,0,0-1.3.461,7.957,7.957,0,0,1-2.1,1.062,7.644,7.644,0,0,1-2.546.461,8.071,8.071,0,0,1-4.046-1,7.285,7.285,0,0,1-3.652-5.249h15.232a1.822,1.822,0,0,0,1.32-.5Zm-13.361-7.59a7.3,7.3,0,0,1,3.908-1,5.845,5.845,0,0,1,5.569,3.427,8.113,8.113,0,0,1,.711,2.464H358.812a8.4,8.4,0,0,1,.676-2.144,6.451,6.451,0,0,1,2.464-2.743Z" transform="translate(-326.878 -66.605)" fill="#fff" stroke="#fff" stroke-miterlimit="10" stroke-width="1"/>
      <path id="Path_14659-4" data-name="Path 14659-4" d="M460.416,98.112a15.17,15.17,0,0,1-5.187-.86,9.928,9.928,0,0,1-3.706-2.183,1.748,1.748,0,0,1-.512-1.464,1.922,1.922,0,0,1,.781-1.341,2.083,2.083,0,0,1,1.584-.54,2.163,2.163,0,0,1,1.341.7,6.265,6.265,0,0,0,2.183,1.423,8.223,8.223,0,0,0,3.347.663,6.712,6.712,0,0,0,3.544-.768,2.363,2.363,0,0,0,1.262-1.963,2.451,2.451,0,0,0-1.141-2.083,10.928,10.928,0,0,0-4.307-1.443,12.618,12.618,0,0,1-5.868-2.4,5.031,5.031,0,0,1-1.825-3.926,4.885,4.885,0,0,1,1.2-3.386,7.312,7.312,0,0,1,3.086-2,11.721,11.721,0,0,1,3.926-.66,12.222,12.222,0,0,1,4.691.844,8,8,0,0,1,3.245,2.324,1.855,1.855,0,0,1,.512,1.343,1.556,1.556,0,0,1-.681,1.182,1.963,1.963,0,0,1-1.535.279,2.845,2.845,0,0,1-1.482-.722,5.454,5.454,0,0,0-2.165-1.32,9.062,9.062,0,0,0-2.684-.361,6.7,6.7,0,0,0-2.984.6,1.9,1.9,0,0,0-1.182,1.763,2.3,2.3,0,0,0,.379,1.3,3.206,3.206,0,0,0,1.5,1.042,19.053,19.053,0,0,0,3.286.9,17.378,17.378,0,0,1,4.747,1.535,6.542,6.542,0,0,1,2.505,2.142,5.228,5.228,0,0,1,.768,2.815,5.886,5.886,0,0,1-.98,3.327,6.746,6.746,0,0,1-2.887,2.365A11.421,11.421,0,0,1,460.416,98.112Z" transform="translate(-398.28 -66.59)" fill="#fff" stroke="#fff" stroke-miterlimit="10" stroke-width="1"/>
      <path id="Path_14660-4" data-name="Path 14660-4" d="M558.2,68.08l-7.757-9.543,7.357-6.551a1.858,1.858,0,0,0,.64-1.28,2,2,0,0,0-1.791-1.963,1.776,1.776,0,0,0-1.341.512l-9.724,8.7V41.637a1.965,1.965,0,0,0-3.928-.143,1.18,1.18,0,0,0,0,.133V69a1.964,1.964,0,0,0,3.926.131V62.88l1.994-1.791,7.621,9.425a1.8,1.8,0,0,0,1.3.7,1.958,1.958,0,0,0,1.423-.461,1.8,1.8,0,0,0,.282-2.674Z" transform="translate(-465.735 -39.6)" fill="#fff" stroke="#fff" stroke-miterlimit="10" stroke-width="1"/>
      <path id="Path_14661-4" data-name="Path 14661-4" d="M632.472,47.1a2.664,2.664,0,1,1,1.863-.781,2.544,2.544,0,0,1-1.863.781Zm0,25.481a1.986,1.986,0,0,1-2.047-1.927.881.881,0,0,1,0-.118V52.707A1.965,1.965,0,0,1,631,51.225a2.034,2.034,0,0,1,3.506,1.482V70.536a2.014,2.014,0,0,1-.56,1.461,1.968,1.968,0,0,1-1.477.581Z" transform="translate(-531.316 -41.214)" fill="#fff" stroke="#fff" stroke-miterlimit="10" stroke-width="1"/>
    </g>
  </g>
</svg>
