<svg xmlns="http://www.w3.org/2000/svg" width="22.502" height="13.5" viewBox="0 0 22.502 13.5">
  <g id="Icon_ionic-ios-done-all" data-name="Icon ionic-ios-done-all" transform="translate(-6.746 -11.25)">
    <path id="Path_305" data-name="Path 305" d="M22.324,14.787a.329.329,0,0,0,0-.457l-1.392-1.477a.3.3,0,0,0-.225-.1h0a.3.3,0,0,0-.225.1l-4.676,4.859,1.856,1.905Z" fill="#06df88"/>
    <path id="Path_306" data-name="Path 306" d="M8.7,17.8a.306.306,0,0,0-.45,0L6.841,19.252a.331.331,0,0,0,0,.464l4.444,4.57a1.369,1.369,0,0,0,.928.464,1.457,1.457,0,0,0,.921-.45l.007-.007.942-.97Z" fill="#06df88"/>
    <path id="Path_307" data-name="Path 307" d="M29.159,12.825l-1.392-1.477a.3.3,0,0,0-.225-.1h0a.3.3,0,0,0-.225.1L17.627,21.382,14.1,17.754a.306.306,0,0,0-.45,0l-1.413,1.455a.331.331,0,0,0,0,.464l4.444,4.57a1.369,1.369,0,0,0,.928.464,1.457,1.457,0,0,0,.921-.45l.007-.007L29.159,13.275A.327.327,0,0,0,29.159,12.825Z" fill="#06df88"/>
  </g>
</svg>
