<svg xmlns="http://www.w3.org/2000/svg" width="9.473" height="13.587" viewBox="0 0 9.473 13.587">
  <path id="Icon_ionic-ios-flag" data-name="Icon ionic-ios-flag" d="M15.944,5.094c-.092.018-.189.035-.293.05a14.663,14.663,0,0,1-1.793.184A9.258,9.258,0,0,1,11.544,4.9a9.607,9.607,0,0,0-2.385-.4,3.791,3.791,0,0,0-2.288.474l-.121.1v12.5a.485.485,0,0,0,.364.506.449.449,0,0,0,.465-.492V12.129a.28.28,0,0,1,.189-.28,6.042,6.042,0,0,1,1.391-.138,9.515,9.515,0,0,1,2.267.548,8.848,8.848,0,0,0,2.468.407,11.818,11.818,0,0,0,2.125-.234.273.273,0,0,0,.2-.28V5.374A.258.258,0,0,0,15.944,5.094Z" transform="translate(-6.75 -4.5)" fill="#ff4141"/>
</svg>
