<svg width="40" height="40" viewBox="0 0 40 40" fill="none" xmlns="http://www.w3.org/2000/svg">
<path d="M10 0H2C0.89543 0 0 0.89543 0 2V38C0 39.1046 0.89543 40 2 40H10C11.1046 40 12 39.1046 12 38V2C12 0.89543 11.1046 0 10 0Z" fill="#FDED62"/>
<path d="M24 0H16C14.8954 0 14 0.89543 14 2V22C14 23.1046 14.8954 24 16 24H24C25.1046 24 26 23.1046 26 22V2C26 0.89543 25.1046 0 24 0Z" fill="#FFAD0E"/>
<path d="M38 0H30C28.8954 0 28 0.89543 28 2V30C28 31.1046 28.8954 32 30 32H38C39.1046 32 40 31.1046 40 30V2C40 0.89543 39.1046 0 38 0Z" fill="#71DADA"/>
</svg>
