<svg xmlns="http://www.w3.org/2000/svg" width="300.003" height="223.538" viewBox="0 0 300.003 223.538">
  <g id="Mail_sent-rafiki" data-name="Mail sent-rafiki" transform="translate(0 -55)">
    <g id="freepik--background-complete--inject-33" transform="translate(0 55)">
      <rect id="Rectangle_158" data-name="Rectangle 158" width="300.003" height="0.15" transform="translate(0 196.442)" fill="#e0e0e0"/>
      <rect id="Rectangle_159" data-name="Rectangle 159" width="20.64" height="0.15" transform="translate(205.958 202.796)" fill="#e0e0e0"/>
      <rect id="Rectangle_160" data-name="Rectangle 160" width="11.616" height="0.15" transform="translate(55.009 202.868)" fill="#e0e0e0"/>
      <rect id="Rectangle_161" data-name="Rectangle 161" width="23.544" height="0.15" transform="translate(127.057 202.52)" fill="#e0e0e0"/>
      <rect id="Rectangle_162" data-name="Rectangle 162" width="10.524" height="0.15" transform="translate(115.933 200.384)" fill="#e0e0e0"/>
      <rect id="Rectangle_163" data-name="Rectangle 163" width="31.794" height="0.15" transform="translate(222.944 200.462)" fill="#e0e0e0"/>
      <path id="Path_199" data-name="Path 199" d="M157.485,224.682H41.63a3.426,3.426,0,0,1-3.42-3.426V58.4A3.426,3.426,0,0,1,41.63,55H157.485a3.426,3.426,0,0,1,3.426,3.426V221.256A3.426,3.426,0,0,1,157.485,224.682ZM41.63,55.12A3.276,3.276,0,0,0,38.36,58.4V221.256a3.276,3.276,0,0,0,3.27,3.276H157.485a3.282,3.282,0,0,0,3.276-3.276V58.4a3.282,3.282,0,0,0-3.276-3.276Z" transform="translate(-15.284 -55)" fill="#e0e0e0"/>
      <path id="Path_200" data-name="Path 200" d="M373.787,224.682H257.926a3.432,3.432,0,0,1-3.426-3.426V58.4a3.432,3.432,0,0,1,3.426-3.4H373.787a3.426,3.426,0,0,1,3.414,3.4V221.256A3.426,3.426,0,0,1,373.787,224.682ZM257.926,55.12A3.282,3.282,0,0,0,254.65,58.4V221.256a3.282,3.282,0,0,0,3.276,3.276H373.787a3.282,3.282,0,0,0,3.276-3.276V58.4a3.282,3.282,0,0,0-3.276-3.276Z" transform="translate(-101.799 -55)" fill="#e0e0e0"/>
      <path id="Path_201" data-name="Path 201" d="M403.034,200.1c-7.38-11.238-.642-23.316-1.764-35.82s-13-15.228-10.752-25.8c2.6-12.288-4.338-24.078-12.2-24.078s-14.8,11.76-12.2,24.06c2.25,10.59-9.6,13.32-10.752,25.8s5.616,24.6-1.77,35.82-5.442,26.118-1.284,33.5a28.636,28.636,0,0,0,3.972,5.43,30.114,30.114,0,0,0,44.07,0,28.878,28.878,0,0,0,3.966-5.43C408.482,226.217,410.42,211.361,403.034,200.1Z" transform="translate(-139.446 -78.76)" fill="#e0e0e0"/>
      <path id="Path_202" data-name="Path 202" d="M395.622,271.44h0a3.732,3.732,0,0,1,3.732,3.732v62.845H391.89V275.172A3.732,3.732,0,0,1,395.622,271.44Z" transform="translate(-156.754 -141.575)" fill="#f0f0f0"/>
      <path id="Path_203" data-name="Path 203" d="M313.146,337.121H303V274.282a5.094,5.094,0,0,1,5.082-5.082h0a5.094,5.094,0,0,1,5.082,5.082Z" transform="translate(-121.198 -140.679)" fill="#e0e0e0"/>
      <circle id="Ellipse_100" data-name="Ellipse 100" cx="31.302" cy="31.302" r="31.302" transform="translate(155.563 116.887)" fill="#f0f0f0"/>
      <circle id="Ellipse_101" data-name="Ellipse 101" cx="12.336" cy="12.336" r="12.336" transform="translate(196.729 144.819) rotate(-76.05)" fill="#f0f0f0"/>
      <circle id="Ellipse_102" data-name="Ellipse 102" cx="7.302" cy="7.302" r="7.302" transform="translate(153.164 134.549) rotate(-80.75)" fill="#f0f0f0"/>
      <circle id="Ellipse_103" data-name="Ellipse 103" cx="5.124" cy="5.124" r="5.124" transform="translate(164.366 119.617)" fill="#f0f0f0"/>
      <path id="Path_204" data-name="Path 204" d="M148.991,307.986a33.931,33.931,0,0,0-13.632,5.2c-.036-4.752-.906-9.258-3.138-12.9a43.759,43.759,0,0,0-8.4,12.2c-.822-8.634-3.1-17.034-8.13-22.356-7.542,4.746-11.43,12.654-13.278,21.03A38.083,38.083,0,0,0,89.53,297.252c-4.614,4.86-6.09,11.58-5.964,18.468-5.244-6.108-11.064-10.872-16.74-11.43-1.4,9.654,1.578,18.762,5.364,25.962A28.752,28.752,0,0,0,97.672,345.5h24.654a28.528,28.528,0,0,0,25.284-14.886C150.725,324.732,152.213,317.166,148.991,307.986Z" transform="translate(-26.589 -149.051)" fill="#e0e0e0"/>
      <path id="Path_205" data-name="Path 205" d="M139.953,101.956c3.042-8.922.6-15.276-6.822-15.276-4.668,0-10.458,2.5-16.1,6.57-.636-2.322-2.43-3.708-5.316-3.708-5.082,0-12.084,4.3-17.574,10.356a8.4,8.4,0,0,0-5.724-2.31c-4.866-.276-10.752,2.2-15.87,6.21a2.766,2.766,0,0,0-2.256-1.158c-2.8-.156-6.6,2.34-8.478,5.568-.114.2-.216.4-.324.6h79.939A10.077,10.077,0,0,0,139.953,101.956Z" transform="translate(-24.596 -67.672)" fill="#f0f0f0"/>
      <path id="Path_206" data-name="Path 206" d="M167.134,197.458c1.488-4.356.306-7.458-3.33-7.458-2.286,0-5.112,1.2-7.866,3.21a2.436,2.436,0,0,0-2.6-1.8c-2.478,0-5.9,2.1-8.586,5.064a4.074,4.074,0,0,0-2.8-1.128c-2.4-.138-5.25,1.068-7.752,3.03a1.35,1.35,0,0,0-1.074-.576c-1.368-.078-3.222,1.14-4.14,2.718l-.162.288h39.048a4.9,4.9,0,0,0-.744-3.348Z" transform="translate(-51.531 -108.999)" fill="#f0f0f0"/>
      <path id="Path_207" data-name="Path 207" d="M271.935,136a6.79,6.79,0,0,0-.93-.066c.288-4.35-1.374-7.134-4.932-7.134-2.562,0-5.712,1.452-8.916,3.906.918-8.448-2.022-13.938-8.682-13.938-5.364,0-12.162,3.6-18.876,9.4-.6-3.312-2.568-5.3-5.892-5.3-5.838,0-14.136,6.144-20.79,14.808h0a8.4,8.4,0,0,0-6.444-3.318c-5.556-.39-12.462,3.138-18.6,8.886a2.838,2.838,0,0,0-2.526-1.65c-3.042-.216-7.2,2.958-9.666,7.2H276.825C279.435,142.356,277.359,136.728,271.935,136Z" transform="translate(-66.271 -80.508)" fill="#f0f0f0"/>
    </g>
    <g id="freepik--Shadow--inject-33" transform="translate(33.666 264.954)">
      <ellipse id="Ellipse_104" data-name="Ellipse 104" cx="116.335" cy="6.792" rx="116.335" ry="6.792" fill="#f5f5f5"/>
    </g>
    <g id="freepik--Mail--inject-33" transform="translate(29.316 78.36)">
      <path id="Path_208" data-name="Path 208" d="M48.86,150.56l136.783,19.692L204,188.774Z" transform="translate(-48.86 -116.584)" fill="#407bff"/>
      <path id="Path_209" data-name="Path 209" d="M48.86,150.56l136.783,19.692L204,188.774Z" transform="translate(-48.86 -116.584)" fill="#fff" opacity="0.6"/>
      <path id="Path_210" data-name="Path 210" d="M48.86,150.56l136.783,19.692L179.3,197.036Z" transform="translate(-48.86 -116.584)" fill="#407bff"/>
      <path id="Path_211" data-name="Path 211" d="M48.86,150.56l136.783,19.692L179.3,197.036Z" transform="translate(-48.86 -116.584)" opacity="0.2"/>
      <path id="Path_212" data-name="Path 212" d="M209.4,96.906l7.938,37.2a3.75,3.75,0,0,1-2.88,4.446l-70.849,15.12a3.756,3.756,0,0,1-4.446-2.88l-7.944-37.2a3.756,3.756,0,0,1,2.886-4.446l70.849-15.12a3.756,3.756,0,0,1,4.446,2.886Z" transform="translate(-81.769 -93.938)" fill="#407bff"/>
      <path id="Path_213" data-name="Path 213" d="M209.4,96.906l7.938,37.2a3.75,3.75,0,0,1-2.88,4.446l-70.849,15.12a3.756,3.756,0,0,1-4.446-2.88l-7.944-37.2a3.756,3.756,0,0,1,2.886-4.446l70.849-15.12a3.756,3.756,0,0,1,4.446,2.886Z" transform="translate(-81.769 -93.938)" opacity="0.4"/>
      <path id="Path_214" data-name="Path 214" d="M208.1,94.465l-23.67,29.058a15.258,15.258,0,0,1-18.69,3.99l-33.474-16.86a3.732,3.732,0,0,1,2.286-1.518L205.4,94.015A3.738,3.738,0,0,1,208.1,94.465Z" transform="translate(-82.224 -93.934)" fill="#407bff"/>
      <path id="Path_215" data-name="Path 215" d="M48.86,150.56l112.819,26.814L179.3,197.036Z" transform="translate(-48.86 -116.584)" fill="#407bff"/>
      <path id="Path_216" data-name="Path 216" d="M48.86,150.56l112.819,26.814L179.3,197.036Z" transform="translate(-48.86 -116.584)" fill="#fff" opacity="0.6"/>
      <rect id="Rectangle_164" data-name="Rectangle 164" width="0.6" height="14.55" transform="matrix(0.505, -0.863, 0.863, 0.505, 40.851, 60.339)" fill="#407bff"/>
      <rect id="Rectangle_165" data-name="Rectangle 165" width="0.6" height="5.232" transform="matrix(0.505, -0.863, 0.863, 0.505, 58.949, 70.935)" fill="#407bff"/>
      <path id="Path_217" data-name="Path 217" d="M48.86,150.56l112.819,26.814-21.93,26.43Z" transform="translate(-48.86 -116.584)" fill="#407bff"/>
      <path id="Path_218" data-name="Path 218" d="M287.31,248.812a1.2,1.2,0,0,1-.444-.084l-18.372-7.272a1.2,1.2,0,1,1,.882-2.232l18.378,7.272a1.2,1.2,0,0,1-.444,2.316Z" transform="translate(-136.409 -152.015)" fill="#407bff"/>
      <path id="Path_219" data-name="Path 219" d="M287.31,248.812a1.2,1.2,0,0,1-.444-.084l-18.372-7.272a1.2,1.2,0,1,1,.882-2.232l18.378,7.272a1.2,1.2,0,0,1-.444,2.316Z" transform="translate(-136.409 -152.015)" opacity="0.3"/>
      <path id="Path_220" data-name="Path 220" d="M291.172,233.476a1.146,1.146,0,0,1-.438-.09l-9.87-3.93a1.2,1.2,0,1,1,.882-2.232l9.87,3.912a1.215,1.215,0,0,1-.444,2.34Z" transform="translate(-141.357 -147.215)" fill="#407bff"/>
      <path id="Path_221" data-name="Path 221" d="M291.172,233.476a1.146,1.146,0,0,1-.438-.09l-9.87-3.93a1.2,1.2,0,1,1,.882-2.232l9.87,3.912a1.215,1.215,0,0,1-.444,2.34Z" transform="translate(-141.357 -147.215)" fill="#fff" opacity="0.5"/>
      <path id="Path_222" data-name="Path 222" d="M251.414,248.656a1.26,1.26,0,0,1-.438-.084l-17.922-7.116a1.2,1.2,0,1,1,.882-2.232l17.922,7.092a1.2,1.2,0,0,1-.444,2.316Z" transform="translate(-122.233 -152.015)" fill="#407bff"/>
      <path id="Path_223" data-name="Path 223" d="M251.414,248.656a1.26,1.26,0,0,1-.438-.084l-17.922-7.116a1.2,1.2,0,1,1,.882-2.232l17.922,7.092a1.2,1.2,0,0,1-.444,2.316Z" transform="translate(-122.233 -152.015)" opacity="0.3"/>
    </g>
    <g id="freepik--Character--inject-33" transform="translate(156.403 87.682)">
      <path id="Path_224" data-name="Path 224" d="M368.316,164.82c1.59,3.1,3.048,6.21,4.434,9.39s2.676,6.4,3.8,9.78l.408,1.278c.072.228.174.6.234.864s.114.564.144.816a21.179,21.179,0,0,1,.21,2.922,52.341,52.341,0,0,1-.252,5.4,86.485,86.485,0,0,1-1.632,10.332l-3.294-.366c-.042-3.378-.072-6.792-.192-10.122-.054-1.656-.15-3.318-.318-4.878a18.316,18.316,0,0,0-.36-2.178c-.03-.168-.078-.294-.114-.432s-.072-.186-.132-.366l-.456-1.134c-1.254-3.036-2.664-6.1-4.1-9.144l-4.356-9.144Z" transform="translate(-301.337 -131.61)" fill="#e4897b"/>
      <path id="Path_225" data-name="Path 225" d="M378.116,230.42l-1.536,2.874,4.908,1.368a5.12,5.12,0,0,0-.18-4.134Z" transform="translate(-307.033 -157.849)" fill="#e4897b"/>
      <path id="Path_226" data-name="Path 226" d="M373.45,239.35l4.512.36,2.274-3.132-4.908-1.368Z" transform="translate(-305.781 -159.765)" fill="#e4897b"/>
      <path id="Path_227" data-name="Path 227" d="M337.309,129.78c-.066.354-.312.6-.54.552s-.354-.366-.282-.714.312-.6.54-.552S337.387,129.432,337.309,129.78Z" transform="translate(-290.988 -117.306)" fill="#263238"/>
      <path id="Path_228" data-name="Path 228" d="M335.894,131.26a12.8,12.8,0,0,1-2.274,2.646,2.064,2.064,0,0,0,1.6.648Z" transform="translate(-289.85 -118.186)" fill="#de5753"/>
      <path id="Path_229" data-name="Path 229" d="M339.477,126.767a.216.216,0,0,1-.15-.066,1.668,1.668,0,0,0-1.4-.564.21.21,0,0,1-.072-.408,2.04,2.04,0,0,1,1.8.69.21.21,0,0,1,0,.294.216.216,0,0,1-.18.054Z" transform="translate(-291.488 -115.967)" fill="#263238"/>
      <path id="Path_230" data-name="Path 230" d="M347.791,138.43c-.63,3.228-1.26,9.132,1,11.286,0,0-.882,3.27-6.876,3.27-6.6,0-3.144-3.27-3.144-3.27,3.6-.858,3.5-3.528,2.874-6.03Z" transform="translate(-291.547 -121.054)" fill="#e4897b"/>
      <path id="Path_231" data-name="Path 231" d="M349.748,157.5c.474-1.578,1-3.384-.084-3.954-1.2-.6-7.722-1.26-9.972-.09s-1.608,4.38-1.608,4.38Z" transform="translate(-291.601 -126.807)" fill="#263238"/>
      <path id="Path_232" data-name="Path 232" d="M379.883,409.3a1.41,1.41,0,0,1-1.056-.288.426.426,0,0,1,0-.5.5.5,0,0,1,.33-.246c.648-.144,1.86.684,1.914.72a.12.12,0,0,1,.042.108.1.1,0,0,1-.078.078,5.6,5.6,0,0,1-1.152.126Zm-.552-.84H379.2a.282.282,0,0,0-.192.144c-.1.168-.036.24,0,.264.186.252,1.086.252,1.746.144a3.469,3.469,0,0,0-1.428-.54Z" transform="translate(-307.9 -228.981)" fill="#407bff"/>
      <path id="Path_233" data-name="Path 233" d="M381.652,408.5H381.6c-.456-.252-1.338-1.2-1.248-1.7a.342.342,0,0,1,.336-.276.6.6,0,0,1,.444.132c.51.42.6,1.692.6,1.746a.1.1,0,0,1-.048.1A.084.084,0,0,1,381.652,408.5Zm-.888-1.8h-.024c-.138,0-.15.084-.156.108-.054.294.51,1.02.96,1.362a2.514,2.514,0,0,0-.516-1.38.384.384,0,0,0-.288-.078Z" transform="translate(-308.541 -228.286)" fill="#407bff"/>
      <path id="Path_234" data-name="Path 234" d="M335.618,409.293c-.564,0-1.11-.078-1.3-.33a.4.4,0,0,1,0-.456.528.528,0,0,1,.336-.246c.726-.2,2.274.678,2.34.714a.108.108,0,0,1,.048.108.1.1,0,0,1-.084.084,7.3,7.3,0,0,1-1.344.126Zm-.7-.852a.69.69,0,0,0-.2,0,.306.306,0,0,0-.2.144c-.078.132-.048.192,0,.228.2.276,1.314.294,2.142.18a4.721,4.721,0,0,0-1.74-.54Z" transform="translate(-290.102 -228.973)" fill="#407bff"/>
      <path id="Path_235" data-name="Path 235" d="M337.715,408.495h-.042c-.534-.234-1.584-1.2-1.506-1.686,0-.12.1-.264.39-.294a.732.732,0,0,1,.6.18,2.945,2.945,0,0,1,.684,1.7.092.092,0,0,1-.126.1Zm-1.074-1.8h-.066c-.186,0-.2.1-.2.12-.048.3.672,1.05,1.2,1.374a2.4,2.4,0,0,0-.6-1.356.522.522,0,0,0-.306-.126Z" transform="translate(-290.867 -228.283)" fill="#407bff"/>
      <path id="Path_236" data-name="Path 236" d="M343.6,402.836h-4.41l-.438-10.206h4.41Z" transform="translate(-291.902 -222.732)" fill="#e4897b"/>
      <path id="Path_237" data-name="Path 237" d="M386.524,402.836h-4.41L379.9,392.63h4.4Z" transform="translate(-308.361 -222.732)" fill="#e4897b"/>
      <path id="Path_238" data-name="Path 238" d="M378.481,408.79h4.95a.39.39,0,0,1,.378.306l.87,3.918a.648.648,0,0,1-.648.78c-1.728-.03-2.568-.132-4.746-.132-1.338,0-4.1.144-5.952.144s-2.088-1.8-1.332-2a10.948,10.948,0,0,0,5.76-2.742A1.068,1.068,0,0,1,378.481,408.79Z" transform="translate(-305.041 -229.196)" fill="#263238"/>
      <path id="Path_239" data-name="Path 239" d="M332.425,408.79h4.8a.39.39,0,0,1,.378.306l.87,3.918a.642.642,0,0,1-.636.78c-1.734-.03-4.242-.132-6.426-.132-2.55,0-4.758.144-7.752.144-1.8,0-2.31-1.8-1.554-2,3.45-.756,6.264-.834,9.246-2.67A2.016,2.016,0,0,1,332.425,408.79Z" transform="translate(-285.108 -229.196)" fill="#263238"/>
      <path id="Path_240" data-name="Path 240" d="M309.96,155.764a101.507,101.507,0,0,1-10.986-1.458c-1.8-.348-3.636-.738-5.46-1.23a43.886,43.886,0,0,1-5.5-1.8c-.462-.192-.93-.4-1.392-.6a12.283,12.283,0,0,1-1.5-.876c-.864-.57-1.608-1.164-2.346-1.752-1.47-1.2-2.832-2.4-4.2-3.63-2.682-2.484-5.226-5.052-7.68-7.752l2.208-2.466,8.706,6.258c1.434,1.032,2.886,2.046,4.314,3,.708.474,1.434.918,2.1,1.3a7.292,7.292,0,0,0,.864.42c.354.138.714.276,1.092.408a64.8,64.8,0,0,0,9.918,2.22c3.426.54,6.966.984,10.386,1.344Z" transform="translate(-264.762 -119.362)" fill="#e4897b"/>
      <path id="Path_241" data-name="Path 241" d="M365.381,158.811c4.134.948,8.31,13.026,8.31,13.026l-8.5,6.1s-2.4-5.628-4.716-10.548C358.049,162.237,361.157,157.845,365.381,158.811Z" transform="translate(-300.251 -129.152)" fill="#407bff"/>
      <path id="Path_242" data-name="Path 242" d="M365.381,158.811c4.134.948,8.31,13.026,8.31,13.026l-8.5,6.1s-2.4-5.628-4.716-10.548C358.049,162.237,361.157,157.845,365.381,158.811Z" transform="translate(-300.251 -129.152)" opacity="0.4"/>
      <path id="Path_243" data-name="Path 243" d="M364.126,169.9l-1.686,3.774c1.746,3.768,3.342,7.5,3.768,8.5C366.148,177.712,365.3,172.18,364.126,169.9Z" transform="translate(-301.377 -133.642)" fill="#407bff"/>
      <path id="Path_244" data-name="Path 244" d="M364.126,169.9l-1.686,3.774c1.746,3.768,3.342,7.5,3.768,8.5C366.148,177.712,365.3,172.18,364.126,169.9Z" transform="translate(-301.377 -133.642)" opacity="0.6"/>
      <path id="Path_245" data-name="Path 245" d="M326.626,158.368s-4.692,5.3-.264,38.1h23.574c.168-3.6-2.106-21.276,1.38-38.328a61.537,61.537,0,0,0-7.89-1,87.16,87.16,0,0,0-10.02,0,44.1,44.1,0,0,0-6.78,1.224Z" transform="translate(-286.186 -128.482)" fill="#407bff"/>
      <path id="Path_246" data-name="Path 246" d="M326.626,158.368s-4.692,5.3-.264,38.1h23.574c.168-3.6-2.106-21.276,1.38-38.328a61.537,61.537,0,0,0-7.89-1,87.16,87.16,0,0,0-10.02,0,44.1,44.1,0,0,0-6.78,1.224Z" transform="translate(-286.186 -128.482)" opacity="0.4"/>
      <path id="Path_247" data-name="Path 247" d="M324.924,169.9c-.156,1.242-.276,2.712-.354,4.446a24.648,24.648,0,0,0,6.564-3.084Z" transform="translate(-286.23 -133.642)" fill="#407bff"/>
      <path id="Path_248" data-name="Path 248" d="M324.924,169.9c-.156,1.242-.276,2.712-.354,4.446a24.648,24.648,0,0,0,6.564-3.084Z" transform="translate(-286.23 -133.642)" opacity="0.6"/>
      <path id="Path_249" data-name="Path 249" d="M331.6,164.9c-3.156,2.8-15.2,2.514-15.2,2.514L316,155.75a88.9,88.9,0,0,0,12.282.888C335,156.5,335.044,161.816,331.6,164.9Z" transform="translate(-282.802 -127.982)" fill="#407bff"/>
      <path id="Path_250" data-name="Path 250" d="M331.6,164.9c-3.156,2.8-15.2,2.514-15.2,2.514L316,155.75a88.9,88.9,0,0,0,12.282.888C335,156.5,335.044,161.816,331.6,164.9Z" transform="translate(-282.802 -127.982)" opacity="0.4"/>
      <path id="Path_251" data-name="Path 251" d="M270.614,131.884l-3-3.534-3.234,3.6s1.992,3.348,5.154,2.82Z" transform="translate(-262.154 -117.022)" fill="#e4897b"/>
      <path id="Path_252" data-name="Path 252" d="M261.834,121.48l-1.164,4.614,2.2,3.084,3.234-3.576Z" transform="translate(-260.67 -114.274)" fill="#e4897b"/>
      <path id="Path_253" data-name="Path 253" d="M338.75,392.64l.228,5.256h4.41l-.228-5.256Z" transform="translate(-291.902 -222.736)" fill="#ce6f64"/>
      <path id="Path_254" data-name="Path 254" d="M384.31,392.64H379.9l1.14,5.256h4.41Z" transform="translate(-308.361 -222.736)" fill="#ce6f64"/>
      <path id="Path_255" data-name="Path 255" d="M341.293,117.588c-3.954-1.8-5.2-9.8,6.174-7.8,0,0-1.716,1.9,1.764,3.1S349.8,121.494,341.293,117.588Z" transform="translate(-291.792 -109.47)" fill="#263238"/>
      <path id="Path_256" data-name="Path 256" d="M348.713,127.946c-1.134,4.2-1.578,6.756-4.2,8.514-3.924,2.64-8.8-.39-8.958-4.872-.138-4.026,1.74-10.26,6.27-11.112a5.964,5.964,0,0,1,6.888,7.47Z" transform="translate(-290.621 -113.828)" fill="#e4897b"/>
      <path id="Path_257" data-name="Path 257" d="M349.749,113.058c2.694,1.5,6.342,2.4,6,4.536-.45,2.61,2.2.978,1.584,4.86-.4,2.538-5.082,10.23-8.4,9.858-4.956-.6-4.326-8.136-4.344-12.108C344.577,117.858,344.469,110.1,349.749,113.058Z" transform="translate(-294.23 -110.64)" fill="#263238"/>
      <path id="Path_258" data-name="Path 258" d="M342.767,119.11c-1.2.282-2.79,7.2,1.86,7.836C349.973,127.672,342.767,119.11,342.767,119.11Z" transform="translate(-293.002 -113.326)" fill="#263238"/>
      <path id="Path_259" data-name="Path 259" d="M340.859,120.332c-1.47.132-4.8-1.638-4.392-4.3C336.467,116.012,338.573,119.144,340.859,120.332Z" transform="translate(-290.975 -112.094)" fill="#263238"/>
      <path id="Path_260" data-name="Path 260" d="M344.828,131.575a4.926,4.926,0,0,1-2.178,2.31c-1.266.66-1.98-.3-1.692-1.572.258-1.14,1.23-2.862,2.532-3S345.35,130.375,344.828,131.575Z" transform="translate(-292.759 -117.403)" fill="#e4897b"/>
      <path id="Path_261" data-name="Path 261" d="M358.45,122.068a5.91,5.91,0,0,0,3.468-4.4S363.9,123.172,358.45,122.068Z" transform="translate(-299.781 -112.75)" fill="#263238"/>
      <path id="Path_262" data-name="Path 262" d="M364.878,124.005a3.042,3.042,0,0,0-2.868-.282S363.858,121.329,364.878,124.005Z" transform="translate(-301.205 -114.777)" fill="#263238"/>
      <path id="Path_263" data-name="Path 263" d="M341.57,222.764s5,33.684,7.746,46.3c3,13.8,14.34,59.857,14.34,59.857h8.07S364.256,284,362.54,270.3c-1.86-14.85-5.76-47.556-5.76-47.556Z" transform="translate(-293.03 -154.777)" fill="#407bff"/>
      <path id="Path_264" data-name="Path 264" d="M341.57,222.764s5,33.684,7.746,46.3c3,13.8,14.34,59.857,14.34,59.857h8.07S364.256,284,362.54,270.3c-1.86-14.85-5.76-47.556-5.76-47.556Z" transform="translate(-293.03 -154.777)" fill="#fff" opacity="0.5"/>
      <path id="Path_265" data-name="Path 265" d="M376.229,394.75c-.036,0,.834,3.1.834,3.1h9.084l-.168-2.766Z" transform="translate(-306.893 -223.58)" fill="#407bff"/>
      <path id="Path_266" data-name="Path 266" d="M376.229,394.75c-.036,0,.834,3.1.834,3.1h9.084l-.168-2.766Z" transform="translate(-306.893 -223.58)" opacity="0.1"/>
      <path id="Path_267" data-name="Path 267" d="M345.972,242.748c5.784,1.134,5.172,22.7,4.476,33.8-1.668-7.842-4.11-22.932-5.778-33.642a1.974,1.974,0,0,1,1.3-.156Z" transform="translate(-294.27 -162.762)" fill="#407bff"/>
      <path id="Path_268" data-name="Path 268" d="M345.972,242.748c5.784,1.134,5.172,22.7,4.476,33.8-1.668-7.842-4.11-22.932-5.778-33.642a1.974,1.974,0,0,1,1.3-.156Z" transform="translate(-294.27 -162.762)" fill="#fff" opacity="0.4"/>
      <path id="Path_269" data-name="Path 269" d="M327.424,222.78s-.6,32.952-.126,46.4c.5,13.98,5.4,59.761,5.4,59.761h7.464s.276-44.964.6-58.693c.366-14.97,2.172-47.466,2.172-47.466Z" transform="translate(-287.248 -154.793)" fill="#407bff"/>
      <path id="Path_270" data-name="Path 270" d="M327.424,222.78s-.6,32.952-.126,46.4c.5,13.98,5.4,59.761,5.4,59.761h7.464s.276-44.964.6-58.693c.366-14.97,2.172-47.466,2.172-47.466Z" transform="translate(-287.248 -154.793)" fill="#fff" opacity="0.5"/>
      <path id="Path_271" data-name="Path 271" d="M335.63,325.215a.072.072,0,0,1-.072-.066c-1.32-12.672-4.422-43.332-4.8-54.331-.4-11.226-.036-36.414.084-43.866a.072.072,0,0,1,.072-.072h0a.078.078,0,0,1,.078.072c-.12,7.452-.486,32.64-.084,43.86.39,11,3.492,41.646,4.8,54.318a.084.084,0,0,1-.072.084Z" transform="translate(-288.631 -156.433)" fill="#407bff"/>
      <path id="Path_272" data-name="Path 272" d="M335.63,325.215a.072.072,0,0,1-.072-.066c-1.32-12.672-4.422-43.332-4.8-54.331-.4-11.226-.036-36.414.084-43.866a.072.072,0,0,1,.072-.072h0a.078.078,0,0,1,.078.072c-.12,7.452-.486,32.64-.084,43.86.39,11,3.492,41.646,4.8,54.318a.084.084,0,0,1-.072.084Z" transform="translate(-288.631 -156.433)" fill="#fff" opacity="0.4"/>
      <path id="Path_273" data-name="Path 273" d="M334,394.75c-.03,0,.426,3.1.426,3.1H343.5l.246-2.766Z" transform="translate(-290.001 -223.58)" fill="#407bff"/>
      <path id="Path_274" data-name="Path 274" d="M334,394.75c-.03,0,.426,3.1.426,3.1H343.5l.246-2.766Z" transform="translate(-290.001 -223.58)" opacity="0.1"/>
    </g>
  </g>
</svg>
