<svg width="52" height="44" viewBox="0 0 52 44" fill="none" xmlns="http://www.w3.org/2000/svg">
<path fill-rule="evenodd" clip-rule="evenodd" d="M44.4155 43.4676L51.0974 35.2525L44.1972 27.2199L44.2614 32H19V39H44.3554L44.4155 43.4676Z" fill="#FAE107"/>
<path fill-rule="evenodd" clip-rule="evenodd" d="M19 32C19 32 19 32 19 32C25.6274 32 31 26.4035 31 19.5C31 12.5964 25.6274 7 19 7C15.2208 7 11.8497 8.81977 9.65007 11.664L12.5876 13.8629L2.5 15L0.747925 5.00001L3.65036 7.17271C7.26085 2.79248 12.7283 0 18.848 0C29.7198 0 38.5332 8.81339 38.5332 19.6853C38.5332 30.5064 29.8019 39.2882 19 39.3699V39.4H2.00004V32H18.848V31.999C18.8986 31.9997 18.9492 32 19 32Z" fill="#6A43DA"/>
</svg>
