<svg xmlns="http://www.w3.org/2000/svg" width="11.5" height="11.574" viewBox="0 0 11.5 11.574">
  <path id="Icon_ionic-ios-settings" data-name="Icon ionic-ios-settings" d="M15.051,10.285A1.489,1.489,0,0,1,16,8.9a5.922,5.922,0,0,0-.71-1.721,1.492,1.492,0,0,1-.6.13,1.477,1.477,0,0,1-1.045-.434,1.5,1.5,0,0,1-.305-1.657A5.828,5.828,0,0,0,11.631,4.5a1.475,1.475,0,0,1-2.761,0,5.846,5.846,0,0,0-1.71.714,1.492,1.492,0,0,1-.305,1.657,1.471,1.471,0,0,1-1.045.434,1.443,1.443,0,0,1-.6-.13A6.053,6.053,0,0,0,4.5,8.9a1.492,1.492,0,0,1,0,2.778,5.922,5.922,0,0,0,.71,1.721,1.482,1.482,0,0,1,1.95,1.962,5.88,5.88,0,0,0,1.71.714,1.473,1.473,0,0,1,2.755,0,5.846,5.846,0,0,0,1.71-.714,1.5,1.5,0,0,1,.305-1.654,1.477,1.477,0,0,1,1.644-.307A5.956,5.956,0,0,0,16,11.677,1.5,1.5,0,0,1,15.051,10.285Zm-4.774,2.408a2.411,2.411,0,1,1,2.4-2.411A2.4,2.4,0,0,1,10.277,12.693Z" transform="translate(-4.5 -4.5)" fill="#7b7b7b"/>
</svg>
