<svg xmlns="http://www.w3.org/2000/svg" width="18.668" height="17.335" viewBox="0 0 18.668 17.335">
  <path id="Icon_ionic-ios-star" data-name="Icon ionic-ios-star" d="M20.21,9.375H14.08L12.217,3.817a.675.675,0,0,0-1.267,0L9.088,9.375H2.917a.669.669,0,0,0-.667.667.49.49,0,0,0,.013.113.641.641,0,0,0,.279.471l5.038,3.55L5.646,19.8a.669.669,0,0,0,.229.75.645.645,0,0,0,.375.163.817.817,0,0,0,.417-.15l4.917-3.5,4.917,3.5a.781.781,0,0,0,.417.15.6.6,0,0,0,.371-.163.66.66,0,0,0,.229-.75l-1.933-5.621,5-3.584.121-.1a.7.7,0,0,0,.217-.446A.706.706,0,0,0,20.21,9.375Z" transform="translate(-2.25 -3.375)" fill="#858585"/>
</svg>
