<svg width="35" height="43" viewBox="0 0 35 43" fill="none" xmlns="http://www.w3.org/2000/svg">
<path d="M17.1001 0C7.90006 10.4 5.80006 25.7 10.7001 38.3H23.4001C28.4001 25.7 26.3001 10.4 17.1001 0ZM17.1001 17.5C15.4001 17.5 14.0001 16.1 14.0001 14.4C14.0001 12.7 15.4001 11.3 17.1001 11.3C18.8001 11.3 20.2001 12.7 20.2001 14.4C20.2001 16.1 18.8001 17.5 17.1001 17.5Z" fill="#8DBFF9"/>
<path d="M0 34.4V38.3H8.6C7.5 35.3 6.8 32.1 6.4 29L0 34.4Z" fill="#2983ED"/>
<path d="M27.9 29C27.5 32.2 26.8 35.3 25.7 38.3H34.3V34.4L27.9 29Z" fill="#2983ED"/>
<rect x="11" y="40" width="12" height="3" fill="#2983ED"/>
</svg>
