<svg xmlns="http://www.w3.org/2000/svg" width="19.15" height="19.15" viewBox="0 0 19.15 19.15">
  <path id="Icon_metro-insert-template" data-name="Icon metro-insert-template" d="M9.752,5.519h2.394v1.2H9.752Zm3.591,0h2.394v1.2H13.343Zm5.984,0v4.788H15.736v-1.2H18.13V6.716h-1.2v-1.2ZM8.555,9.109h2.394v1.2H8.555Zm3.591,0H14.54v1.2H12.146ZM6.161,6.716V9.109h1.2v1.2H4.964V5.519H8.555v1.2ZM9.752,12.7h2.394v1.2H9.752Zm3.591,0h2.394v1.2H13.343Zm5.984,0v4.788H15.736v-1.2H18.13V13.9h-1.2V12.7ZM8.555,16.291h2.394v1.2H8.555Zm3.591,0H14.54v1.2H12.146ZM6.161,13.9v2.394h1.2v1.2H4.964V12.7H8.555v1.2ZM20.524,3.125H3.768V19.881H20.524V3.125Zm1.2-1.2v19.15H2.571V1.928h19.15Z" transform="translate(-2.571 -1.928)" fill="#ff6767"/>
</svg>
