<svg xmlns="http://www.w3.org/2000/svg" width="18.9" height="16.538" viewBox="0 0 18.9 16.538">
  <path id="Icon_awesome-toolbox" data-name="Icon awesome-toolbox" d="M18.554,8.992l-1.67-1.67a1.181,1.181,0,0,0-.835-.346H14.175V4.022A1.772,1.772,0,0,0,12.4,2.25H6.5A1.772,1.772,0,0,0,4.725,4.022V6.975H2.852a1.182,1.182,0,0,0-.835.346L.346,8.992A1.181,1.181,0,0,0,0,9.827v3.054H4.725v-.591a.59.59,0,0,1,.591-.591H6.5a.59.59,0,0,1,.591.591v.591h4.725v-.591A.59.59,0,0,1,12.4,11.7h1.181a.59.59,0,0,1,.591.591v.591H18.9V9.827A1.181,1.181,0,0,0,18.554,8.992ZM11.813,6.975H7.088V4.613h4.725Zm2.363,7.678a.59.59,0,0,1-.591.591H12.4a.59.59,0,0,1-.591-.591v-.591H7.088v.591a.59.59,0,0,1-.591.591H5.316a.59.59,0,0,1-.591-.591v-.591H0v3.544a1.181,1.181,0,0,0,1.181,1.181H17.719A1.181,1.181,0,0,0,18.9,17.607V14.063H14.175Z" transform="translate(0 -2.25)" fill="#858585"/>
</svg>
