<svg xmlns="http://www.w3.org/2000/svg" width="18.566" height="18.566" viewBox="0 0 18.566 18.566">
  <path id="Icon_material-group-work" data-name="Icon material-group-work" d="M12.283,3a9.283,9.283,0,1,0,9.283,9.283A9.287,9.287,0,0,0,12.283,3ZM8.57,17.389a2.321,2.321,0,1,1,2.321-2.321A2.322,2.322,0,0,1,8.57,17.389ZM9.962,8.57a2.321,2.321,0,1,1,2.321,2.321A2.322,2.322,0,0,1,9.962,8.57ZM16,17.389a2.321,2.321,0,1,1,2.321-2.321A2.322,2.322,0,0,1,16,17.389Z" transform="translate(-3 -3)" fill="#858585"/>
</svg>
