<svg xmlns="http://www.w3.org/2000/svg" width="18.566" height="18.566" viewBox="0 0 18.566 18.566">
  <path id="Icon_awesome-user-circle" data-name="Icon awesome-user-circle" d="M9.283.563a9.283,9.283,0,1,0,9.283,9.283A9.282,9.282,0,0,0,9.283.563Zm0,3.593A3.294,3.294,0,1,1,5.989,7.45,3.294,3.294,0,0,1,9.283,4.156Zm0,12.877A7.173,7.173,0,0,1,3.8,14.48a4.173,4.173,0,0,1,3.687-2.238.916.916,0,0,1,.266.041,4.956,4.956,0,0,0,1.531.258,4.937,4.937,0,0,0,1.531-.258.916.916,0,0,1,.266-.041,4.173,4.173,0,0,1,3.687,2.238A7.173,7.173,0,0,1,9.283,17.033Z" transform="translate(0 -0.563)" fill="#858585"/>
</svg>
