<svg xmlns="http://www.w3.org/2000/svg" width="16.111" height="20.644" viewBox="0 0 16.111 20.644">
  <path id="Icon_awesome-clipboard" data-name="Icon awesome-clipboard" d="M16.111,4.516V18.708A1.976,1.976,0,0,1,14.1,20.644H2.014A1.976,1.976,0,0,1,0,18.708V4.516A1.976,1.976,0,0,1,2.014,2.58H5.37A2.637,2.637,0,0,1,8.056,0a2.637,2.637,0,0,1,2.685,2.58H14.1A1.976,1.976,0,0,1,16.111,4.516Zm-8.056-2.9a.988.988,0,0,0-1.007.968,1.008,1.008,0,0,0,2.014,0,.988.988,0,0,0-1.007-.968m4.028,4.6V5.4a.247.247,0,0,0-.252-.242H4.28a.247.247,0,0,0-.252.242v.806a.247.247,0,0,0,.252.242h7.552A.247.247,0,0,0,12.083,6.209Z" fill="#858585"/>
</svg>
