<svg xmlns="http://www.w3.org/2000/svg" width="48" height="48" viewBox="0 0 48 48">
  <g id="Group_142" data-name="Group 142" transform="translate(-503 -267)">
    <g id="Group_141" data-name="Group 141">
      <rect id="Rectangle_97" data-name="Rectangle 97" width="48" height="48" rx="4" transform="translate(503 267)" fill="#fcb400"/>
    </g>
    <g id="bug" transform="translate(514.35 278.35)">
      <g id="Group_62" data-name="Group 62" transform="translate(7.057 0)">
        <g id="Group_61" data-name="Group 61" transform="translate(0 0)">
          <path id="Path_158" data-name="Path 158" d="M151.408,2.25l.543-1.223a.73.73,0,0,0-1.334-.593l-.78,1.756h-2.944l-.78-1.756a.73.73,0,0,0-1.334.593l.543,1.223a3.167,3.167,0,0,0-2.552,3.1V6.569h11.19V5.352A3.167,3.167,0,0,0,151.408,2.25Z" transform="translate(-142.771 0)" fill="#fff"/>
        </g>
      </g>
      <g id="Group_64" data-name="Group 64" transform="translate(0.002 5.109)">
        <g id="Group_63" data-name="Group 63" transform="translate(0)">
          <path id="Path_159" data-name="Path 159" d="M24.571,111.171H20.192v-1.517a4.629,4.629,0,0,0,3.892-4.564v-.973a.73.73,0,0,0-1.46,0v.973a3.167,3.167,0,0,1-2.433,3.076v-.644a1.218,1.218,0,0,0-1.216-1.216H13.381v8.514a.73.73,0,1,1-1.46,0v-8.514H6.327a1.218,1.218,0,0,0-1.216,1.216v.644a3.167,3.167,0,0,1-2.433-3.076v-.973a.73.73,0,0,0-1.46,0v.973a4.629,4.629,0,0,0,3.892,4.564v1.517H.732a.73.73,0,0,0,0,1.46H5.11v1.517a4.629,4.629,0,0,0-3.892,4.564v.973a.73.73,0,1,0,1.46,0v-.973a3.167,3.167,0,0,1,2.433-3.076v.4a7.541,7.541,0,1,0,15.082,0v-.4a3.167,3.167,0,0,1,2.433,3.076v.973a.73.73,0,0,0,1.46,0v-.973a4.629,4.629,0,0,0-3.892-4.564v-1.517h4.379a.73.73,0,0,0,0-1.46Z" transform="translate(-0.002 -103.387)" fill="#fff"/>
        </g>
      </g>
    </g>
  </g>
</svg>
