<svg xmlns="http://www.w3.org/2000/svg" width="17.508" height="20.009" viewBox="0 0 17.508 20.009">
  <path id="Icon_awesome-building" data-name="Icon awesome-building" d="M17.039,18.758h-.782V.938A.938.938,0,0,0,15.319,0H2.188a.938.938,0,0,0-.938.938v17.82H.469A.469.469,0,0,0,0,19.227v.782H17.508v-.782A.469.469,0,0,0,17.039,18.758ZM5,2.97A.469.469,0,0,1,5.471,2.5H7.034A.469.469,0,0,1,7.5,2.97V4.533A.469.469,0,0,1,7.034,5H5.471A.469.469,0,0,1,5,4.533ZM5,6.722a.469.469,0,0,1,.469-.469H7.034a.469.469,0,0,1,.469.469V8.285a.469.469,0,0,1-.469.469H5.471A.469.469,0,0,1,5,8.285Zm2.032,5.784H5.471A.469.469,0,0,1,5,12.037V10.473A.469.469,0,0,1,5.471,10H7.034a.469.469,0,0,1,.469.469v1.563A.469.469,0,0,1,7.034,12.506ZM10,18.758H7.5V15.476a.469.469,0,0,1,.469-.469H9.536a.469.469,0,0,1,.469.469Zm2.5-6.722a.469.469,0,0,1-.469.469H10.473A.469.469,0,0,1,10,12.037V10.473A.469.469,0,0,1,10.473,10h1.563a.469.469,0,0,1,.469.469Zm0-3.752a.469.469,0,0,1-.469.469H10.473A.469.469,0,0,1,10,8.285V6.722a.469.469,0,0,1,.469-.469h1.563a.469.469,0,0,1,.469.469Zm0-3.752A.469.469,0,0,1,12.037,5H10.473A.469.469,0,0,1,10,4.533V2.97a.469.469,0,0,1,.469-.469h1.563a.469.469,0,0,1,.469.469Z" fill="#858585"/>
</svg>
