<svg xmlns="http://www.w3.org/2000/svg" width="21.492" height="17.194" viewBox="0 0 21.492 17.194">
  <path id="Icon_awesome-network-wired" data-name="Icon awesome-network-wired" d="M21.492,8.866V8.328a.537.537,0,0,0-.537-.537h-9.4V6.448H13.97a1.075,1.075,0,0,0,1.075-1.075v-4.3A1.075,1.075,0,0,0,13.97,0H7.522A1.075,1.075,0,0,0,6.448,1.075v4.3A1.075,1.075,0,0,0,7.522,6.448H9.94V7.791H.537A.537.537,0,0,0,0,8.328v.537A.537.537,0,0,0,.537,9.4H4.03v1.343H2.149a1.075,1.075,0,0,0-1.075,1.075v4.3a1.075,1.075,0,0,0,1.075,1.075H7.522A1.075,1.075,0,0,0,8.6,16.119v-4.3a1.075,1.075,0,0,0-1.075-1.075H5.642V9.4H15.85v1.343H13.97A1.075,1.075,0,0,0,12.9,11.821v4.3a1.075,1.075,0,0,0,1.075,1.075h5.373a1.075,1.075,0,0,0,1.075-1.075v-4.3a1.075,1.075,0,0,0-1.075-1.075H17.462V9.4h3.492A.537.537,0,0,0,21.492,8.866ZM8.6,4.3V2.149h4.3V4.3ZM6.448,15.045H3.224V12.9H6.448Zm11.821,0H15.045V12.9h3.224Z" fill="#858585"/>
</svg>
