<svg xmlns="http://www.w3.org/2000/svg" width="15.363" height="13.165" viewBox="0 0 15.363 13.165">
  <path id="Icon_ionic-md-eye-off" data-name="Icon ionic-md-eye-off" d="M9.933,7.27a3.483,3.483,0,0,1,3.494,3.466A3.334,3.334,0,0,1,13.177,12l2.04,2.023a8.2,8.2,0,0,0,2.4-3.291A8.274,8.274,0,0,0,7.146,6.022l1.509,1.5A3.454,3.454,0,0,1,9.933,7.27ZM2.949,5.381,4.544,6.962l.322.319A8.157,8.157,0,0,0,2.25,10.736a8.286,8.286,0,0,0,10.741,4.615l.295.291,2.047,2.023.888-.881L3.834,4.5Zm3.86,3.83,1.083,1.073a1.964,1.964,0,0,0-.055.449,2.084,2.084,0,0,0,2.095,2.078,1.97,1.97,0,0,0,.453-.055l1.083,1.073a3.475,3.475,0,0,1-5.03-3.1A3.425,3.425,0,0,1,6.81,9.211Zm3.01-.538,2.2,2.184.014-.11A2.084,2.084,0,0,0,9.94,8.669Z" transform="translate(-2.25 -4.5)" fill="#c5c5c5"/>
</svg>
