<svg xmlns="http://www.w3.org/2000/svg" width="17.542" height="10.985" viewBox="0 0 17.542 10.985">
  <g id="noun_filter_149803" transform="translate(-4.975 -21.688)">
    <g id="Group_95" data-name="Group 95" transform="translate(4.975 21.688)">
      <path id="Path_182" data-name="Path 182" d="M22.517,22.631a.205.205,0,0,1-.2.205H5.18a.2.2,0,0,1-.2-.205v-.738a.205.205,0,0,1,.2-.205H22.312a.2.2,0,0,1,.2.205v.738Zm-2.05,2.541a.2.2,0,0,0-.2-.2H7.229a.2.2,0,0,0-.2.2v.738a.2.2,0,0,0,.2.2H20.263a.2.2,0,0,0,.2-.2v-.738Zm-2.049,3.279a.2.2,0,0,0-.205-.2H9.279a.205.205,0,0,0-.205.2v.738a.2.2,0,0,0,.205.2h8.935a.205.205,0,0,0,.205-.2v-.738ZM16.369,31.73a.205.205,0,0,0-.2-.205H11.328a.2.2,0,0,0-.2.205v.738a.205.205,0,0,0,.2.205h4.836a.2.2,0,0,0,.2-.205V31.73Z" transform="translate(-4.975 -21.688)"/>
    </g>
  </g>
</svg>
