<svg id="iconfinder_2993685_brand_brands_google_logo_logos_icon" xmlns="http://www.w3.org/2000/svg" xmlns:xlink="http://www.w3.org/1999/xlink" width="20.012" height="20.012" viewBox="0 0 20.012 20.012">
  <defs>
    <linearGradient id="linear-gradient" y1="0.5" x2="1" y2="0.5" gradientUnits="objectBoundingBox">
      <stop offset="0" stop-color="#fff" stop-opacity="0.2"/>
      <stop offset="1" stop-color="#fff" stop-opacity="0"/>
    </linearGradient>
  </defs>
  <path id="Path_183" data-name="Path 183" d="M10.236,4.169A5.805,5.805,0,0,1,13.81,5.4L16.843,2.5A9.987,9.987,0,0,0,1.386,5.345L4.758,8.007A5.833,5.833,0,0,1,10.236,4.169Z" transform="translate(-0.23 0)" fill="#f44336"/>
  <path id="Path_184" data-name="Path 184" d="M21.919,12.837a9.924,9.924,0,0,0,.087-1.252A10.035,10.035,0,0,0,21.785,9.5H12v4.169h5.408A5.9,5.9,0,0,1,15.2,16.437l3.385,2.672A10,10,0,0,0,21.919,12.837Z" transform="translate(-1.994 -1.579)" fill="#2196f3"/>
  <path id="Path_185" data-name="Path 185" d="M4.169,11.071a5.812,5.812,0,0,1,.359-2L1.156,6.41a9.971,9.971,0,0,0-.023,9.275l3.377-2.666A5.813,5.813,0,0,1,4.169,11.071Z" transform="translate(0 -1.065)" fill="#ffc107"/>
  <path id="Path_186" data-name="Path 186" d="M10.232,18.225a5.834,5.834,0,0,1-5.5-3.889L1.358,17a9.99,9.99,0,0,0,15.458,2.911l-3.385-2.672A5.7,5.7,0,0,1,10.232,18.225Z" transform="translate(-0.226 -2.382)" fill="#00b060"/>
  <path id="Path_187" data-name="Path 187" d="M10.512,23.122a10.353,10.353,0,0,1-7.465-3.151,9.971,9.971,0,0,0,14.876.058A10.344,10.344,0,0,1,10.512,23.122Z" transform="translate(-0.506 -3.319)" opacity="0.1"/>
  <path id="Path_188" data-name="Path 188" d="M12,14.25v.208h5.408l.084-.208Z" transform="translate(-1.994 -2.368)" opacity="0.1"/>
  <path id="Path_189" data-name="Path 189" d="M23.994,12.116c0-.041,0-.081,0-.123,0-.012,0-.023,0-.035C24,12.011,23.994,12.063,23.994,12.116Z" transform="translate(-3.987 -1.987)" fill="#e6e6e6"/>
  <path id="Path_190" data-name="Path 190" d="M12,9.5v.208h9.827c-.013-.069-.027-.14-.042-.208Z" transform="translate(-1.994 -1.579)" fill="#fff" opacity="0.2"/>
  <path id="Path_191" data-name="Path 191" d="M19.791,7.921H10.006V12.09h5.408a5.829,5.829,0,1,1-2.249-6.97c.14.091.284.176.415.278L16.613,2.5l-.068-.053a9.964,9.964,0,1,0,3.247,5.469Z" transform="translate(0 0)" fill="url(#linear-gradient)"/>
  <path id="Path_192" data-name="Path 192" d="M14,5.411A5.81,5.81,0,0,0,5,10.3c0,.035,0,.063,0,.1A5.81,5.81,0,0,1,14,5.619c.14.091.284.176.415.278L17.444,3,14.411,5.689C14.28,5.587,14.135,5.5,14,5.411Z" transform="translate(-0.831 -0.499)" opacity="0.1"/>
  <path id="Path_193" data-name="Path 193" d="M10.006.208A9.943,9.943,0,0,1,16.492,2.62l.12-.115-.092-.08A9.863,9.863,0,0,0,10.006,0,10.006,10.006,0,0,0,0,10.006c0,.035,0,.069.005.1A10,10,0,0,1,10.006.208Z" transform="translate(0 0)" fill="#fff" opacity="0.2"/>
</svg>
