<svg xmlns="http://www.w3.org/2000/svg" width="20.65" height="20.742" viewBox="0 0 20.65 20.742">
  <path id="Icon_simple-processwire" data-name="Icon simple-processwire" d="M18.876,4.555a10.515,10.515,0,0,0-2.715-2.708,10.436,10.436,0,0,0-12.863.8,9.893,9.893,0,0,0-2.955,4.6,10.017,10.017,0,0,0-.227,4.155A14.164,14.164,0,0,0,.84,13.94a.825.825,0,0,0,.353.426,1.409,1.409,0,0,0,1.585-.551A.146.146,0,0,0,2.8,13.69a11.907,11.907,0,0,1-.245-1.29,11.673,11.673,0,0,1-.09-2.687,7.861,7.861,0,0,1,.323-1.7,7.528,7.528,0,0,1,2.237-3.44A8.082,8.082,0,0,1,9.369,2.61a7.685,7.685,0,0,1,2.752.175,8.239,8.239,0,0,1,2.56,1.165,7.675,7.675,0,0,1,2.043,2.042,7.889,7.889,0,0,1,1.175,2.7,7.985,7.985,0,0,1,.064,2.993,8.179,8.179,0,0,1-1.086,2.831,7.623,7.623,0,0,1-2.068,2.2,8.039,8.039,0,0,1-2.74,1.239,7.442,7.442,0,0,1-1.487.207,8.288,8.288,0,0,1-1.46-.071c-.62-.1-.749-.258-.891-.474a1.33,1.33,0,0,1-.126-.572c.009-3.807.008-2.791.008-4.767,0-.558-.018-1.065-.013-1.525a2.4,2.4,0,0,1,.626-1.835,2.085,2.085,0,0,1,1.529-.664,2.011,2.011,0,0,1,2.068,1.818,2.368,2.368,0,0,1-.828,2.044,2.993,2.993,0,0,1-.828.441,3.5,3.5,0,0,1-1.317.157.128.128,0,0,0-.136.1l-.142.74a.633.633,0,0,0,.353.84,4.336,4.336,0,0,0,1.7.207,4.236,4.236,0,0,0,2.626-1.163,3.87,3.87,0,0,0,1.169-2.286,5.1,5.1,0,0,0-.478-2.9A4.728,4.728,0,0,0,8.887,5.866l-.013,0A4.744,4.744,0,0,0,6.842,7.126,4.693,4.693,0,0,0,5.8,8.813,5.407,5.407,0,0,0,5.5,10.7c-.014.558.013,1.077.013,1.563v3.2c0,1.023-.034,1.2,0,1.727a4.027,4.027,0,0,0,.219,1.169A3.313,3.313,0,0,0,7.556,20.3a7.453,7.453,0,0,0,3.128.429,10.2,10.2,0,0,0,1.971-.271A10.488,10.488,0,0,0,16.3,18.8a10.16,10.16,0,0,0,2.763-2.932A10.628,10.628,0,0,0,20.5,12.118a10.258,10.258,0,0,0-1.654-7.6l.033.032Z" transform="translate(0.001 -0.001)" fill="#055052"/>
</svg>
