<svg xmlns="http://www.w3.org/2000/svg" width="17" height="17.281" viewBox="0 0 17 17.281">
  <path id="Icon_ionic-ios-settings" data-name="Icon ionic-ios-settings" d="M20.1,13.138a2.222,2.222,0,0,1,1.4-2.074A8.892,8.892,0,0,0,20.451,8.5a2.158,2.158,0,0,1-2.435-.454,2.252,2.252,0,0,1-.452-2.475A8.569,8.569,0,0,0,15.041,4.5a2.173,2.173,0,0,1-4.082,0A8.6,8.6,0,0,0,8.431,5.566,2.245,2.245,0,0,1,7.98,8.041a2.164,2.164,0,0,1-1.545.648,2.116,2.116,0,0,1-.89-.193A9.089,9.089,0,0,0,4.5,11.069a2.236,2.236,0,0,1,0,4.148,8.892,8.892,0,0,0,1.049,2.569,2.167,2.167,0,0,1,2.43.459,2.252,2.252,0,0,1,.452,2.47,8.645,8.645,0,0,0,2.528,1.066,2.169,2.169,0,0,1,4.073,0,8.6,8.6,0,0,0,2.528-1.066,2.254,2.254,0,0,1,.452-2.47,2.167,2.167,0,0,1,2.43-.459A8.944,8.944,0,0,0,21.5,15.217,2.233,2.233,0,0,1,20.1,13.138ZM13.04,16.733a3.6,3.6,0,1,1,3.542-3.6A3.57,3.57,0,0,1,13.04,16.733Z" transform="translate(-4.5 -4.5)" fill="#444"/>
</svg>
