<svg xmlns="http://www.w3.org/2000/svg" width="20" height="10.909" viewBox="0 0 20 10.909">
  <path id="Icon_material-timeline" data-name="Icon material-timeline" d="M21.5,10.818a1.824,1.824,0,0,1-1.818,1.818,1.545,1.545,0,0,1-.464-.064L15.982,15.8a1.606,1.606,0,0,1,.064.473,1.818,1.818,0,1,1-3.636,0,1.606,1.606,0,0,1,.064-.473l-2.318-2.318a1.788,1.788,0,0,1-.945,0L5.073,17.627a1.545,1.545,0,0,1,.064.464,1.818,1.818,0,1,1-1.818-1.818,1.545,1.545,0,0,1,.464.064L7.927,12.2a1.606,1.606,0,0,1-.064-.473,1.818,1.818,0,0,1,3.636,0,1.606,1.606,0,0,1-.064.473l2.318,2.318a1.788,1.788,0,0,1,.945,0l3.227-3.236a1.545,1.545,0,0,1-.064-.464,1.818,1.818,0,1,1,3.636,0Z" transform="translate(-1.5 -9)" fill="#444"/>
</svg>
