<svg xmlns="http://www.w3.org/2000/svg" width="13.11" height="12.994" viewBox="0 0 13.11 12.994">
  <path id="Icon_weather-stars" data-name="Icon weather-stars" d="M6.444,13.21A1.664,1.664,0,0,0,8.03,11.556,1.652,1.652,0,0,0,9.609,13.21,1.652,1.652,0,0,0,8.03,14.864a1.572,1.572,0,0,0-.463-1.144A1.6,1.6,0,0,0,6.444,13.21Zm1.586-4.9a3.128,3.128,0,0,0,2.185-1,3.116,3.116,0,0,0,.9-2.233,3.116,3.116,0,0,0,.9,2.233,3.159,3.159,0,0,0,2.192,1,3.155,3.155,0,0,0-1.559.483A3.271,3.271,0,0,0,11.522,9.97a3.2,3.2,0,0,0-.408,1.586A3.259,3.259,0,0,0,8.03,8.309Zm2.26,7.331a2.431,2.431,0,0,0,2.321-2.43,2.432,2.432,0,0,0,2.314,2.43,2.432,2.432,0,0,0-2.314,2.43,2.344,2.344,0,0,0-.674-1.681A2.385,2.385,0,0,0,10.29,15.64Zm4.635-3.226a2.42,2.42,0,0,0,2.308-2.437,2.431,2.431,0,0,0,2.321,2.43,2.431,2.431,0,0,0-2.321,2.43,2.408,2.408,0,0,0-2.308-2.423Z" transform="translate(-6.444 -5.076)" fill="#171717"/>
</svg>
