<svg xmlns="http://www.w3.org/2000/svg" width="120.623" height="123.541" viewBox="0 0 120.623 123.541">
  <path id="Icon_awesome-user-circle" data-name="Icon awesome-user-circle" d="M60.312.559C26.994.559,0,28.206,0,62.329S26.994,124.1,60.312,124.1s60.312-27.647,60.312-61.77S93.629.559,60.312.559Zm0,23.911a21.665,21.665,0,0,1,21.4,21.919,21.407,21.407,0,1,1-42.8,0A21.665,21.665,0,0,1,60.312,24.47Zm0,85.681A46.17,46.17,0,0,1,24.684,93.165,27.045,27.045,0,0,1,48.638,78.27a5.821,5.821,0,0,1,1.727.274,31.511,31.511,0,0,0,9.947,1.719,31.392,31.392,0,0,0,9.947-1.719,5.821,5.821,0,0,1,1.727-.274A27.045,27.045,0,0,1,95.939,93.165,46.169,46.169,0,0,1,60.312,110.152Z" transform="translate(0 -0.559)" fill="#1b55db"/>
</svg>
